Shakespeare\\\'s epic play is translated from page to screen, with the gender of the main character, Prospero, changed from male to female. 

IMDB rating: 5.4/10 (from 1,613 users)

SAMPLE INCLUDED: 60s/9.28mb

CAST:

Felicity Jones..........Miranda
Jude Akuwudike..........Boatswain
Reeve Carney............Prince Ferdinand
David Strathairn........King Alonso
Tom Conti...............Gonzalo
Alan Cumming............Sebastian
Chris Cooper............Antonio
Helen Mirren............Prospera
Ben Whishaw.............Ariel
Djimon Hounsou..........Caliban
Russell Brand...........Trinculo
Alfred Molina...........Stephano

General
*******
Format                           : Matroska
File size                        : 999 MiB
Duration                         : 1h 46mn
Overall bit rate                 : 1 305 Kbps
Encoded date                     : UTC 2011-10-13 06:06:48
Writing application              : mkvmerge v5.0.0 (\\\'Die Wahre Liebe\\\') built on Sep 25 2011 20:33:49
Writing library                  : libebml v1.2.2 + libmatroska v1.3.0

Video
*****
Format                           : AVC
Format/Info                      : Advanced Video Codec
Format profile                   : Main@L3.0
Format settings, CABAC           : Yes
Format settings, ReFrames        : 4 frames
Muxing mode                      : Container profile=Unknown@3.0
Codec ID                         : V_MPEG4/ISO/AVC
Duration                         : 1h 46mn
Bit rate                         : 1 024 Kbps
Nominal bit rate                 : 1 046 Kbps
Width                            : 720 pixels
Height                           : 304 pixels
Display aspect ratio             : 2.35:1
Frame rate                       : 23.976 fps
Resolution                       : 8 bits
Colorimetry                      : 4:2:0
Scan type                        : Progressive
Bits/(Pixel*Frame)               : 0.195
Stream size                      : 782 MiB (78%)
Writing library                  : x264 core 112

Audio 1
*******
ID                               : 2
Format                           : AC-3
Format/Info                      : Audio Coding 3
Codec ID                         : A_AC3
Duration                         : 1h 46mn
Bit rate mode                    : Constant
Bit rate                         : 128 Kbps
Channel(s)                       : 2 channels
Channel positions                : Front: L R
Sampling rate                    : 48.0 KHz
Stream size                      : 97.9 MiB (10%)
Language                         : ENGLISH

Audio 2
*******
ID                               : 3
Format                           : AC-3
Format/Info                      : Audio Coding 3
Codec ID                         : A_AC3
Duration                         : 1h 46mn
Bit rate mode                    : Constant
Bit rate                         : 128 Kbps
Channel(s)                       : 2 channels
Channel positions                : Front: L R
Sampling rate                    : 48.0 KHz
Stream size                      : 97.9 MiB (10%)
Language                         : GERMAN

Text(subtitles)
***************
ID                               : 4
Format                           : VobSub
Codec ID                         : S_VOBSUB
Codec ID/Info                    : The same subtitle format used on DVDs
Language                         : ROMANIAN


PLEASE SEED FOR AS LONG AS POSSIBLE!